HIERARCHY
ROOT Pelvis
{
	OFFSET 0.000000 0.000000 0.000000
	CHANNELS 6 Xposition Yposition Zposition Xrotation Yrotation Zrotation
	JOINT LeftUpLeg_virtual
	{
		OFFSET 0.000000 0.000000 0.000000
		CHANNELS 3 Xrotation Yrotation Zrotation
		JOINT LeftUpLeg
		{
			OFFSET 18.735201 -5.666702 -4.541200
			CHANNELS 3 Xrotation Yrotation Zrotation
			JOINT LeftLeg
			{
				OFFSET -0.021200 -31.938179 0.493100
				CHANNELS 3 Xrotation Yrotation Zrotation
				JOINT LeftFoot
				{
					OFFSET 0.021200 -31.938179 -4.336299
					CHANNELS 3 Xrotation Yrotation Zrotation
					JOINT LeftToeBase
					{
						OFFSET 0.943001 -26.722000 15.023500
						CHANNELS 3 Xrotation Yrotation Zrotation
						End Site
						{
							OFFSET 0 0 0
						}
					}
				}
			}
		}
	}
	JOINT RightUpLeg_virtual
	{
		OFFSET 0.000000 0.000000 0.000000
		CHANNELS 3 Xrotation Yrotation Zrotation
		JOINT RightUpLeg
		{
			OFFSET -18.735201 -5.666702 -4.541200
			CHANNELS 3 Xrotation Yrotation Zrotation
			JOINT RightLeg
			{
				OFFSET 0.018946 -31.938133 0.493100
				CHANNELS 3 Xrotation Yrotation Zrotation
				JOINT RightFoot
				{
					OFFSET -0.018946 -31.938126 -4.336299
					CHANNELS 3 Xrotation Yrotation Zrotation
					JOINT RightToeBase
					{
						OFFSET -0.943001 -26.722004 15.023500
						CHANNELS 3 Xrotation Yrotation Zrotation
						End Site
						{
							OFFSET 0 0 0
						}
					}
				}
			}
		}
	}
	JOINT Hips_virtual
	{
		OFFSET 0.000000 0.000000 0.000000
		CHANNELS 3 Xrotation Yrotation Zrotation
		JOINT Hips
		{
			OFFSET -0.000000 -0.000000 -0.000000
			CHANNELS 3 Xrotation Yrotation Zrotation
			JOINT Spine
			{
				OFFSET 0.000000 10.199997 -0.299500
				CHANNELS 3 Xrotation Yrotation Zrotation
				JOINT Spine1
				{
					OFFSET 0.000000 11.900002 -1.516600
					CHANNELS 3 Xrotation Yrotation Zrotation
					JOINT Spine2
					{
						OFFSET 0.000000 13.600006 -2.842500
						CHANNELS 3 Xrotation Yrotation Zrotation
						JOINT Neck_virtual
						{
							OFFSET 0.000000 0.000000 0.000000
							CHANNELS 3 Xrotation Yrotation Zrotation
							JOINT Neck
							{
								OFFSET 0.000000 9.624100 -2.890100
								CHANNELS 3 Xrotation Yrotation Zrotation
								JOINT Head
								{
									OFFSET 0.000000 14.068802 -1.351900
									CHANNELS 3 Xrotation Yrotation Zrotation
									End Site
									{
										OFFSET 0 0 0
									}
								}
							}
						}
						JOINT LeftShoulder_virtual
						{
							OFFSET 0.000000 0.000000 0.000000
							CHANNELS 3 Xrotation Yrotation Zrotation
							JOINT LeftShoulder
							{
								OFFSET 15.263000 10.923401 -0.547700
								CHANNELS 3 Xrotation Yrotation Zrotation
								JOINT LeftArm
								{
									OFFSET 25.438599 -2.830597 -13.032500
									CHANNELS 3 Xrotation Yrotation Zrotation
									JOINT LeftForeArm
									{
										OFFSET 29.960503 0.000000 0.000000
										CHANNELS 3 Xrotation Yrotation Zrotation
										JOINT LeftHand
										{
											OFFSET 27.849251 0.000000 0.000000
											CHANNELS 3 Xrotation Yrotation Zrotation
											End Site
											{
												OFFSET 0 0 0
											}
										}
									}
								}
							}
						}
						JOINT RightShoulder_virtual
						{
							OFFSET 0.000000 0.000000 0.000000
							CHANNELS 3 Xrotation Yrotation Zrotation
							JOINT RightShoulder
							{
								OFFSET -15.263000 10.923401 -0.547700
								CHANNELS 3 Xrotation Yrotation Zrotation
								JOINT RightArm
								{
									OFFSET -25.438599 -2.830597 -13.032500
									CHANNELS 3 Xrotation Yrotation Zrotation
									JOINT RightForeArm
									{
										OFFSET -29.960503 0.000000 0.000000
										CHANNELS 3 Xrotation Yrotation Zrotation
										JOINT RightHand
										{
											OFFSET -27.849251 0.000000 0.000000
											CHANNELS 3 Xrotation Yrotation Zrotation
											End Site
											{
												OFFSET 0 0 0
											}
										}
									}
								}
							}
						}
					}
				}
			}
		}
	}
}
MOTION
Frames: 8
Frame Time: 0.03333333
0.756415 41.859451 -3.768684 0.000000 0.000000 0.000000 0.289735 0.760221 0.631957 -21.290057 -10.099803 17.062789 105.181450 4.615783 1.141108 37.386188 -3.914003 -20.410226 0.000000 0.000000 0.000000 0.289735 0.760221 0.631957 -20.353496 6.457431 -17.102116 106.808729 5.324186 0.031059 29.583069 3.276808 17.690224 0.000000 0.000000 0.000000 0.289735 0.760221 0.631957 0.000000 0.000000 0.000000 1.234116 0.225338 0.127904 0.110009 0.122969 -0.090715 0.000000 0.000000 0.000000 0.108809 0.114775 -0.092286 -0.156483 -0.000065 0.047433 0.000000 0.000000 0.000000 0.108809 0.114775 -0.092286 0.606873 -3.284651 -22.051940 11.464578 -16.354596 -52.988526 -0.000002 -20.361395 -0.000006 0.000000 0.000000 0.000000 0.108809 0.114775 -0.092286 -0.115224 9.903020 22.054927 7.750433 7.038401 56.271961 -0.000009 19.886637 0.000028 0.000000 0.000000 0.000000 
0.749398 41.858704 -3.777882 0.000000 0.000000 0.000000 0.297583 0.676597 0.529508 -21.199652 -10.173721 17.219158 105.218470 4.527327 1.036887 37.320823 -3.896503 -20.455204 0.000000 0.000000 0.000000 0.297583 0.676597 0.529508 -20.482943 6.418225 -16.952977 106.814152 5.184065 -0.053829 29.668880 3.355742 17.631029 0.000000 0.000000 0.000000 0.297583 0.676597 0.529508 0.000000 0.000000 0.000000 1.200138 0.246189 0.130478 0.052092 0.122970 -0.079784 0.000000 0.000000 0.000000 0.095956 0.114775 -0.080994 -0.091809 -0.001915 0.052084 0.000000 0.000000 0.000000 0.095956 0.114775 -0.080994 0.608520 -3.276006 -22.034011 11.676376 -16.033980 -52.975425 0.000003 -20.991229 0.000008 0.000000 0.000000 0.000000 0.095956 0.114775 -0.080994 -0.112318 9.880027 22.058282 7.556013 7.063309 56.310620 -0.000001 19.520839 0.000010 0.000000 0.000000 0.000000 
0.742339 41.858131 -3.785709 0.000000 0.000000 0.000000 0.303760 0.594349 0.427150 -21.109244 -10.235081 17.373425 105.253024 4.423379 0.943622 37.253836 -3.861606 -20.511150 0.000000 0.000000 0.000000 0.303760 0.594349 0.427150 -20.605439 6.378647 -16.804372 106.816201 5.040534 -0.137617 29.753240 3.438685 17.571403 0.000000 0.000000 0.000000 0.303760 0.594349 0.427150 0.000000 0.000000 0.000000 1.162919 0.264716 0.133383 -0.003815 0.122969 -0.069356 0.000000 0.000000 0.000000 0.082491 0.114775 -0.070304 -0.028379 -0.004756 0.055827 0.000000 0.000000 0.000000 0.082491 0.114775 -0.070304 0.612546 -3.237233 -22.011258 11.987010 -15.467812 -52.997552 0.000000 -21.987793 -0.000020 0.000000 0.000000 0.000000 0.082491 0.114775 -0.070304 -0.109608 9.836588 22.070940 7.347443 6.953229 56.327911 0.000006 19.192796 -0.000002 0.000000 0.000000 0.000000 
0.735261 41.857620 -3.792683 0.000000 0.000000 0.000000 0.308835 0.512947 0.324862 -21.020887 -10.283787 17.527138 105.285863 4.305220 0.860414 37.185285 -3.812464 -20.573133 0.000000 0.000000 0.000000 0.308835 0.512947 0.324862 -20.723677 6.337617 -16.655182 106.816133 4.910973 -0.220088 29.836332 3.507758 17.519688 0.000000 0.000000 0.000000 0.308835 0.512947 0.324862 0.000000 0.000000 0.000000 1.123675 0.281805 0.136485 -0.058467 0.122970 -0.059246 0.000000 0.000000 0.000000 0.068642 0.114775 -0.059990 0.033408 -0.007846 0.060365 0.000000 0.000000 0.000000 0.068642 0.114775 -0.059990 0.620312 -3.169126 -21.988828 12.328127 -14.761516 -53.058935 -0.000000 -23.142219 0.000029 0.000000 0.000000 0.000000 0.068642 0.114775 -0.059990 -0.108020 9.779243 22.093355 7.155695 6.738902 56.317143 0.000002 18.933013 -0.000008 0.000000 0.000000 0.000000 
0.728482 41.857071 -3.799484 0.000000 0.000000 0.000000 0.313375 0.431948 0.222528 -20.934678 -10.318193 17.676822 105.316961 4.179429 0.793636 37.116778 -3.750662 -20.650483 0.000000 0.000000 0.000000 0.313375 0.431948 0.222528 -20.839785 6.297851 -16.505045 106.815143 4.802298 -0.298932 29.918250 3.559241 17.476740 0.000000 0.000000 0.000000 0.313375 0.431948 0.222528 0.000000 0.000000 0.000000 1.083618 0.298256 0.139747 -0.112616 0.122970 -0.049261 0.000000 0.000000 0.000000 0.054640 0.117964 -0.049826 0.094710 -0.010940 0.064212 0.000000 0.000000 0.000000 0.054640 0.117964 -0.049826 0.631747 -3.067925 -21.968224 12.694677 -13.897995 -53.165400 -0.000000 -24.452519 0.000006 0.000000 0.000000 0.000000 0.054640 0.117964 -0.049826 -0.107064 9.704566 22.126622 6.969239 6.423776 56.272091 -0.000009 18.707383 0.000032 0.000000 0.000000 0.000000 
0.721578 41.856346 -3.806549 0.000000 0.000000 0.000000 0.317945 0.350752 0.120212 -20.852665 -10.341105 17.826133 105.347718 4.037411 0.735325 37.046977 -3.673501 -20.735155 0.000000 0.000000 0.000000 0.317945 0.350752 0.120212 -20.955792 6.257298 -16.353501 106.814344 4.711193 -0.377629 29.999338 3.593452 17.444370 0.000000 0.000000 0.000000 0.317945 0.350752 0.120212 0.000000 0.000000 0.000000 1.043967 0.315019 0.142951 -0.167017 0.122970 -0.039213 0.000000 0.000000 0.000000 0.040713 0.121188 -0.039587 0.155881 -0.013983 0.068000 0.000000 0.000000 0.000000 0.040713 0.121188 -0.039587 0.646201 -2.935363 -21.952349 13.072308 -12.890876 -53.314507 -0.000011 -25.878518 -0.000017 0.000000 0.000000 0.000000 0.040713 0.121188 -0.039587 -0.106150 9.611251 22.171084 6.773669 6.031070 56.189647 0.000002 18.472117 0.000013 0.000000 0.000000 0.000000 
0.714407 41.855209 -3.814358 0.000000 0.000000 0.000000 0.323109 0.268877 0.017828 -20.774946 -10.357463 17.975680 105.378740 3.877514 0.679664 36.976626 -3.582113 -20.824407 0.000000 0.000000 0.000000 0.323109 0.268877 0.017828 -21.074282 6.218387 -16.199822 106.815027 4.636361 -0.456351 30.080385 3.613603 17.420828 0.000000 0.000000 0.000000 0.323109 0.268877 0.017828 0.000000 0.000000 0.000000 1.005932 0.332927 0.146032 -0.222423 0.122970 -0.028913 0.000000 0.000000 0.000000 0.027093 0.124483 -0.029047 0.218246 -0.016926 0.072005 0.000000 0.000000 0.000000 0.027093 0.124483 -0.029047 0.662810 -2.777624 -21.944151 13.441259 -11.777709 -53.496961 0.000007 -27.358704 0.000014 0.000000 0.000000 0.000000 0.027093 0.124483 -0.029047 -0.104828 9.499843 22.226424 6.558167 5.591043 56.067493 0.000011 18.195875 -0.000026 0.000000 0.000000 0.000000 
0.707677 41.853943 -3.823727 0.000000 0.000000 0.000000 0.329428 0.185758 -0.084563 -20.698350 -10.371703 18.121255 105.411102 3.714822 0.629951 36.906442 -3.483327 -20.930992 0.000000 0.000000 0.000000 0.329428 0.185758 -0.084563 -21.196150 6.180815 -16.046601 106.817731 4.570801 -0.531433 30.162102 3.624710 17.400834 0.000000 0.000000 0.000000 0.329428 0.185758 -0.084563 0.000000 0.000000 0.000000 0.970732 0.352888 0.148779 -0.279586 0.128312 -0.018580 0.000000 0.000000 0.000000 0.014006 0.127956 -0.017981 0.281959 -0.019618 0.076024 0.000000 0.000000 0.000000 0.014006 0.127956 -0.017981 0.680745 -2.603469 -21.944544 13.780252 -10.606101 -53.701136 -0.000001 -28.829791 0.000030 0.000000 0.000000 0.000000 0.014006 0.127956 -0.017981 -0.102823 9.371922 22.291019 6.318364 5.129677 55.904098 0.000007 17.868699 -0.000022 0.000000 0.000000 0.000000 
